<svg version="1.1" xmlns="http://www.w3.org/2000/svg" xmlns:xlink="http://www.w3.org/1999/xlink" width="503.51351" height="382.63031" viewBox="0,0,503.51351,382.63031"><g transform="translate(4.264,11.51496)"><g data-paper-data="{&quot;isPaintingLayer&quot;:true}" fill-rule="nonzero" stroke-linecap="butt" stroke-linejoin="miter" stroke-miterlimit="10" stroke-dasharray="" stroke-dashoffset="0" style="mix-blend-mode: normal"><path d="M-4.264,371.11535v-382.63031h503.51351v382.63031zM236.50338,353.15686c126.43955,8.15058 170.85907,-97.10987 177.85232,-170.85907c1.30341,-13.74546 -23.1813,-179.85039 -177.85232,-174.85521c-13.79992,0.44568 -168.861,18.18612 -168.861,174.85521c0,13.80712 12.19235,160.75986 168.861,170.85907z" fill="#2a1a00" stroke="none" stroke-width="0"/><path d="M67.5,180c0,-95.26912 77.23088,-172.5 172.5,-172.5c95.26912,0 172.5,77.23088 172.5,172.5c0,95.26912 -77.23088,172.5 -172.5,172.5c-95.26912,0 -172.5,-77.23088 -172.5,-172.5z" fill="none" stroke="#d8921f" stroke-width="10"/></g></g></svg>