<svg version="1.1" xmlns="http://www.w3.org/2000/svg" xmlns:xlink="http://www.w3.org/1999/xlink" width="12.08552" height="9.13593" viewBox="0,0,12.08552,9.13593"><g transform="translate(-233.95724,-175.43203)"><g data-paper-data="{&quot;isPaintingLayer&quot;:true}" fill="#d8921f" fill-rule="nonzero" stroke="none" stroke-width="0" stroke-linecap="butt" stroke-linejoin="miter" stroke-miterlimit="10" stroke-dasharray="" stroke-dashoffset="0" style="mix-blend-mode: normal"><path d="M235.27632,181.31797c0,0 0,-1.20692 0,-1.69711c0,-0.37474 -0.47368,-3.30763 -0.47368,-3.30763c0,0 1.98573,2.31579 2.75658,2.31579c0.79113,0 2.40461,-2.42105 2.40461,-2.42105c0,0 1.56351,2.42105 2.33224,2.42105c0.75173,0 2.78289,-2.5 2.78289,-2.5c0,0 -0.55263,3.1171 -0.55263,3.49184c0,0.49019 0,1.69711 0,1.69711z"/><path d="M233.95724,176.52743c0,-0.60497 0.49042,-1.09539 1.09539,-1.09539c0.60497,0 1.09539,0.49042 1.09539,1.09539c0,0.60497 -0.49042,1.09539 -1.09539,1.09539c-0.60497,0 -1.09539,-0.49042 -1.09539,-1.09539z"/><path d="M238.95724,176.52743c0,-0.60497 0.49042,-1.09539 1.09539,-1.09539c0.60497,0 1.09539,0.49042 1.09539,1.09539c0,0.60497 -0.49042,1.09539 -1.09539,1.09539c-0.60497,0 -1.09539,-0.49042 -1.09539,-1.09539z"/><path d="M243.85198,176.52743c0,-0.60497 0.49042,-1.09539 1.09539,-1.09539c0.60497,0 1.09539,0.49042 1.09539,1.09539c0,0.60497 -0.49042,1.09539 -1.09539,1.09539c-0.60497,0 -1.09539,-0.49042 -1.09539,-1.09539z"/><path d="M235.27632,184.56797v-2.68895h9.25v2.68895z"/></g></g></svg>